<svg xmlns="http://www.w3.org/2000/svg" width="40" height="40" viewBox="0 0 40 40" fill="none">
  <path d="M24.1673 6.66669H15.834L11.6673 11.6667H6.66732C5.78326 11.6667 4.93542 12.0179 4.31029 12.643C3.68517 13.2681 3.33398 14.116 3.33398 15V30C3.33398 30.8841 3.68517 31.7319 4.31029 32.357C4.93542 32.9822 5.78326 33.3334 6.66732 33.3334H33.334C34.218 33.3334 35.0659 32.9822 35.691 32.357C36.3161 31.7319 36.6673 30.8841 36.6673 30V15C36.6673 14.116 36.3161 13.2681 35.691 12.643C35.0659 12.0179 34.218 11.6667 33.334 11.6667H28.334L24.1673 6.66669Z" stroke="#ADA1C3" stroke-width="1.5" stroke-linecap="round" stroke-linejoin="round"/>
  <path d="M20 26.6667C22.7614 26.6667 25 24.4281 25 21.6667C25 18.9053 22.7614 16.6667 20 16.6667C17.2386 16.6667 15 18.9053 15 21.6667C15 24.4281 17.2386 26.6667 20 26.6667Z" stroke="#ADA1C3" stroke-width="1.5" stroke-linecap="round" stroke-linejoin="round"/>
</svg>