<svg xmlns="http://www.w3.org/2000/svg" width="68" height="95" viewBox="0 0 68 95" fill="none">
  <path d="M14.0065 19.9427C14.0828 17.1642 14.7384 14.4327 15.9313 11.9223C17.1241 9.41181 18.8278 7.17752 20.9335 5.3639C23.807 2.88204 27.3274 1.26945 31.083 0.714595C34.8386 0.159741 38.6743 0.686269 42.1423 2.23126C45.6103 3.77624 48.5672 6.2765 50.6673 9.44008C52.7674 12.6037 53.924 16.2999 54.002 20.0966V32.514M0.666016 33.8483H67.336V93.87H0.666016V33.8483Z" stroke="#513F75" stroke-linecap="round" stroke-linejoin="round"/>
  <path d="M34.1382 48.4444C37.7127 48.4444 40.6104 45.5467 40.6104 41.9722C40.6104 38.3977 37.7127 35.5 34.1382 35.5C30.5637 35.5 27.666 38.3977 27.666 41.9722C27.666 45.5467 30.5637 48.4444 34.1382 48.4444Z" stroke="#513F75" stroke-linecap="round" stroke-linejoin="round"/>
  <path d="M34.1387 49.0591V67.2491" stroke="#513F75" stroke-linecap="round" stroke-linejoin="round"/>
</svg>