<svg xmlns="http://www.w3.org/2000/svg" width="79" height="98" viewBox="0 0 79 98" fill="none">
  <path d="M11.666 37.5H78.3327V97.5H11.666V37.5Z" fill="#C6BED5"/>
  <path d="M13.9993 32.4793V19.9126C14.1525 14.6989 16.336 9.75161 20.085 6.12515C23.8339 2.49868 28.8518 0.480146 34.0677 0.500147C39.2836 0.520148 44.2847 2.57665 48.0057 6.23176C51.7267 9.88686 53.8732 14.8517 53.9863 20.0664V32.4793M0.666016 33.8131H67.3327V93.8131H0.666016V33.8131Z" stroke="#513F75" stroke-linecap="round" stroke-linejoin="round"/>
  <path d="M33.9987 48.9412C37.6806 48.9412 40.6654 45.9565 40.6654 42.2746C40.6654 38.5927 37.6806 35.6079 33.9987 35.6079C30.3168 35.6079 27.332 38.5927 27.332 42.2746C27.332 45.9565 30.3168 48.9412 33.9987 48.9412Z" stroke="#513F75" stroke-linecap="round" stroke-linejoin="round"/>
  <path d="M34 49.5742V67.7611" stroke="#513F75" stroke-linecap="round" stroke-linejoin="round"/>
</svg>