<svg width="129" height="36" viewBox="0 0 129 36" fill="none" xmlns="http://www.w3.org/2000/svg">
<line y1="2.5625" x2="128.625" y2="2.5625" stroke="#231B32" stroke-width="0.875"/>
<path d="M16.6205 22.456H7.3085L5.7085 27H1.9005L9.8685 4.728H14.0925L22.0605 27H18.2205L16.6205 22.456ZM15.5965 19.48L11.9805 9.144L8.3325 19.48H15.5965ZM24.309 18.168C24.309 16.3547 24.6717 14.7653 25.397 13.4C26.1437 12.0133 27.1677 10.9467 28.469 10.2C29.7703 9.45333 31.2637 9.08 32.949 9.08C35.0823 9.08 36.8423 9.592 38.229 10.616C39.637 11.6187 40.5863 13.0587 41.077 14.936H37.141C36.821 14.0613 36.309 13.3787 35.605 12.888C34.901 12.3973 34.0157 12.152 32.949 12.152C31.4557 12.152 30.261 12.6853 29.365 13.752C28.4903 14.7973 28.053 16.2693 28.053 18.168C28.053 20.0667 28.4903 21.5493 29.365 22.616C30.261 23.6827 31.4557 24.216 32.949 24.216C35.061 24.216 36.4583 23.288 37.141 21.432H41.077C40.565 23.224 39.605 24.6533 38.197 25.72C36.789 26.7653 35.0397 27.288 32.949 27.288C31.2637 27.288 29.7703 26.9147 28.469 26.168C27.1677 25.4 26.1437 24.3333 25.397 22.968C24.6717 21.5813 24.309 19.9813 24.309 18.168ZM48.9685 12.344V22.104C48.9685 22.7653 49.1178 23.2453 49.4165 23.544C49.7365 23.8213 50.2698 23.96 51.0165 23.96H53.2565V27H50.3765C48.7338 27 47.4752 26.616 46.6005 25.848C45.7258 25.08 45.2885 23.832 45.2885 22.104V12.344H43.2085V9.368H45.2885V4.984H48.9685V9.368H53.2565V12.344H48.9685ZM60.2668 11.928C60.8001 11.032 61.5041 10.3387 62.3788 9.848C63.2748 9.336 64.3308 9.08 65.5468 9.08V12.856H64.6188C63.1894 12.856 62.1014 13.2187 61.3548 13.944C60.6294 14.6693 60.2668 15.928 60.2668 17.72V27H56.6188V9.368H60.2668V11.928ZM84.772 9.368L73.956 35.288H70.18L73.764 26.712L66.82 9.368H70.884L75.844 22.808L80.996 9.368H84.772ZM86.309 18.168C86.309 16.3547 86.6717 14.7653 87.397 13.4C88.1437 12.0133 89.1677 10.9467 90.469 10.2C91.7703 9.45333 93.2637 9.08 94.949 9.08C97.0823 9.08 98.8423 9.592 100.229 10.616C101.637 11.6187 102.586 13.0587 103.077 14.936H99.141C98.821 14.0613 98.309 13.3787 97.605 12.888C96.901 12.3973 96.0157 12.152 94.949 12.152C93.4557 12.152 92.261 12.6853 91.365 13.752C90.4903 14.7973 90.053 16.2693 90.053 18.168C90.053 20.0667 90.4903 21.5493 91.365 22.616C92.261 23.6827 93.4557 24.216 94.949 24.216C97.061 24.216 98.4583 23.288 99.141 21.432H103.077C102.565 23.224 101.605 24.6533 100.197 25.72C98.789 26.7653 97.0397 27.288 94.949 27.288C93.2637 27.288 91.7703 26.9147 90.469 26.168C89.1677 25.4 88.1437 24.3333 87.397 22.968C86.6717 21.5813 86.309 19.9813 86.309 18.168ZM105.497 18.104C105.497 16.3333 105.859 14.7653 106.585 13.4C107.331 12.0347 108.334 10.9787 109.593 10.232C110.873 9.464 112.281 9.08 113.817 9.08C115.203 9.08 116.409 9.35733 117.433 9.912C118.478 10.4453 119.31 11.1173 119.929 11.928V9.368H123.609V27H119.929V24.376C119.31 25.208 118.467 25.9013 117.401 26.456C116.334 27.0107 115.118 27.288 113.753 27.288C112.238 27.288 110.851 26.904 109.593 26.136C108.334 25.3467 107.331 24.2587 106.585 22.872C105.859 21.464 105.497 19.8747 105.497 18.104ZM119.929 18.168C119.929 16.952 119.673 15.896 119.161 15C118.67 14.104 118.019 13.4213 117.209 12.952C116.398 12.4827 115.523 12.248 114.585 12.248C113.646 12.248 112.771 12.4827 111.961 12.952C111.15 13.4 110.489 14.072 109.977 14.968C109.486 15.8427 109.241 16.888 109.241 18.104C109.241 19.32 109.486 20.3867 109.977 21.304C110.489 22.2213 111.15 22.9253 111.961 23.416C112.793 23.8853 113.667 24.12 114.585 24.12C115.523 24.12 116.398 23.8853 117.209 23.416C118.019 22.9467 118.67 22.264 119.161 21.368C119.673 20.4507 119.929 19.384 119.929 18.168Z" fill="#231B32"/>
<line y1="28.5625" x2="128.625" y2="28.5625" stroke="#231B32" stroke-width="0.875"/>
</svg>
