<svg xmlns="http://www.w3.org/2000/svg" width="17" height="17" viewBox="0 0 17 17" fill="none">
  <path d="M8.5 8.5H8.50667" stroke="#231B32" stroke-linecap="round" stroke-linejoin="round"/>
  <path d="M11.1668 4.49998V3.16665C11.1668 2.81302 11.0264 2.47389 10.7763 2.22384C10.5263 1.97379 10.1871 1.83331 9.8335 1.83331H7.16683C6.81321 1.83331 6.47407 1.97379 6.22402 2.22384C5.97397 2.47389 5.8335 2.81302 5.8335 3.16665V4.49998" stroke="#231B32" stroke-linecap="round" stroke-linejoin="round"/>
  <path d="M15.1668 9.16669C13.1887 10.4727 10.8705 11.1689 8.50016 11.1689C6.1298 11.1689 3.81163 10.4727 1.8335 9.16669" stroke="#231B32" stroke-linecap="round" stroke-linejoin="round"/>
  <path d="M13.8335 4.5H3.16683C2.43045 4.5 1.8335 5.09695 1.8335 5.83333V12.5C1.8335 13.2364 2.43045 13.8333 3.16683 13.8333H13.8335C14.5699 13.8333 15.1668 13.2364 15.1668 12.5V5.83333C15.1668 5.09695 14.5699 4.5 13.8335 4.5Z" stroke="#231B32" stroke-linecap="round" stroke-linejoin="round"/>
</svg>