<svg xmlns="http://www.w3.org/2000/svg" width="17" height="16" viewBox="0 0 17 16" fill="none">
  <path d="M11.1666 14V12.6667C11.1666 11.9594 10.8856 11.2811 10.3855 10.781C9.88544 10.281 9.20716 10 8.49992 10H4.49992C3.79267 10 3.1144 10.281 2.6143 10.781C2.1142 11.2811 1.83325 11.9594 1.83325 12.6667V14" stroke="white" stroke-linecap="round" stroke-linejoin="round"/>
  <path d="M6.49992 7.33333C7.97268 7.33333 9.16659 6.13943 9.16659 4.66667C9.16659 3.19391 7.97268 2 6.49992 2C5.02716 2 3.83325 3.19391 3.83325 4.66667C3.83325 6.13943 5.02716 7.33333 6.49992 7.33333Z" stroke="white" stroke-linecap="round" stroke-linejoin="round"/>
  <path d="M15.1667 14V12.6667C15.1663 12.0758 14.9697 11.5019 14.6077 11.0349C14.2457 10.5679 13.7388 10.2344 13.1667 10.0867" stroke="white" stroke-linecap="round" stroke-linejoin="round"/>
  <path d="M11.1667 2.08667C11.7404 2.23354 12.2488 2.56714 12.6118 3.03488C12.9749 3.50262 13.172 4.07789 13.172 4.67C13.172 5.26212 12.9749 5.83739 12.6118 6.30513C12.2488 6.77287 11.7404 7.10647 11.1667 7.25334" stroke="white" stroke-linecap="round" stroke-linejoin="round"/>
</svg>