<svg xmlns="http://www.w3.org/2000/svg" width="83" height="82" viewBox="0 0 83 82" fill="none">
  <path fill-rule="evenodd" clip-rule="evenodd" d="M5.5 41C5.5 21.1177 21.6177 5 41.5 5C61.3823 5 77.5 21.1177 77.5 41C77.5 60.8823 61.3823 77 41.5 77C21.6177 77 5.5 60.8823 5.5 41ZM41.5 0C18.8563 0 0.5 18.3563 0.5 41C0.5 63.6437 18.8563 82 41.5 82C64.1437 82 82.5 63.6437 82.5 41C82.5 18.3563 64.1437 0 41.5 0ZM62.7678 32.2678C63.7441 31.2915 63.7441 29.7085 62.7678 28.7322C61.7915 27.7559 60.2085 27.7559 59.2322 28.7322L37.5607 50.4038C36.9752 50.9893 36.0251 50.9895 35.4389 50.4034L25.7678 40.7322C24.7915 39.7559 23.2085 39.7559 22.2322 40.7322C21.2559 41.7085 21.2559 43.2915 22.2322 44.2678L31.9034 53.9389C34.4415 56.477 38.5575 56.4781 41.0962 53.9393L62.7678 32.2678Z" fill="url(#paint0_linear_2705_530)"/>
  <defs>
    <linearGradient id="paint0_linear_2705_530" x1="41.5" y1="0" x2="41.5" y2="82" gradientUnits="userSpaceOnUse">
      <stop stop-color="#513F75"/>
      <stop offset="1" stop-color="#D4BBFF"/>
    </linearGradient>
  </defs>
</svg>