<svg xmlns="http://www.w3.org/2000/svg" width="24" height="24" viewBox="0 0 24 24" fill="none">
  <path d="M10 11H10.01" stroke="#513F75" stroke-width="1.5" stroke-linecap="round" stroke-linejoin="round"/>
  <path d="M14 6H14.01" stroke="#513F75" stroke-width="1.5" stroke-linecap="round" stroke-linejoin="round"/>
  <path d="M18 6H18.01" stroke="#513F75" stroke-width="1.5" stroke-linecap="round" stroke-linejoin="round"/>
  <path d="M6.5 13.1001H6.51" stroke="#513F75" stroke-width="1.5" stroke-linecap="round" stroke-linejoin="round"/>
  <path d="M22 5C22 14 18 17 16 17C14 17 10 14 10 5C10 3 12 2 16 2C20 2 22 3 22 5Z" stroke="#513F75" stroke-width="1.5" stroke-linecap="round" stroke-linejoin="round"/>
  <path d="M17.4 9.8999C16.6 10.6999 15.4 10.6999 14.6 9.8999" stroke="#513F75" stroke-width="1.5" stroke-linecap="round" stroke-linejoin="round"/>
  <path d="M10.1 7.1001C9.00001 7.2001 7.70001 7.7001 6.00001 8.6001C2.50001 10.6001 1.30001 12.5001 2.30001 14.2001C6.80001 22.0001 11.8 22.6001 13.5 21.6001C14.4 21.1001 15.4 19.5001 15.4 16.9001" stroke="#513F75" stroke-width="1.5" stroke-linecap="round" stroke-linejoin="round"/>
  <path d="M9.09998 16.4999C9.39998 15.3999 10.5 14.7999 11.5 15.0999" stroke="#513F75" stroke-width="1.5" stroke-linecap="round" stroke-linejoin="round"/>
</svg>