<svg width="167" height="44" viewBox="0 0 167 44" fill="none" xmlns="http://www.w3.org/2000/svg">
<path d="M21.5333 26.5314H9.46881L7.39587 32.3632H2.46227L12.7855 3.77921H18.2581L28.5813 32.3632H23.6063L21.5333 26.5314ZM20.2067 22.712L15.5218 9.44671L10.7955 22.712H20.2067Z" fill="#231B32"/>
<path d="M31.4945 21.0281C31.4945 18.7009 31.9643 16.6611 32.9041 14.9089C33.8715 13.1292 35.1981 11.7603 36.8841 10.802C38.5701 9.84371 40.5049 9.36458 42.6884 9.36458C45.4523 9.36458 47.7325 10.0217 49.5291 11.3359C51.3533 12.6227 52.5832 14.4708 53.2189 16.8802H48.1195C47.7049 15.7576 47.0415 14.8815 46.1295 14.2518C45.2174 13.6221 44.0703 13.3072 42.6884 13.3072C40.7536 13.3072 39.2058 13.9917 38.045 15.3606C36.9118 16.7022 36.3452 18.5914 36.3452 21.0281C36.3452 23.4649 36.9118 25.3678 38.045 26.7367C39.2058 28.1057 40.7536 28.7902 42.6884 28.7902C45.4247 28.7902 47.235 27.5992 48.1195 25.2172H53.2189C52.5556 27.517 51.3118 29.3514 49.4876 30.7204C47.6634 32.062 45.397 32.7328 42.6884 32.7328C40.5049 32.7328 38.5701 32.2536 36.8841 31.2954C35.1981 30.3097 33.8715 28.9407 32.9041 27.1885C31.9643 25.4088 31.4945 23.3554 31.4945 21.0281Z" fill="#231B32"/>
<path d="M63.4431 13.5536V26.0796C63.4431 26.9284 63.6365 27.5444 64.0235 27.9277C64.4381 28.2836 65.1291 28.4616 66.0964 28.4616H68.9986V32.3632H65.2673C63.139 32.3632 61.5083 31.8703 60.3751 30.8847C59.2419 29.899 58.6753 28.2973 58.6753 26.0796V13.5536H55.9805V9.7342H58.6753V4.10776H63.4431V9.7342H68.9986V13.5536H63.4431Z" fill="#231B32"/>
<path d="M78.081 13.0197C78.7719 11.8698 79.684 10.98 80.8172 10.3502C81.9781 9.69313 83.3462 9.36458 84.9217 9.36458V14.2107H83.7194C81.8675 14.2107 80.4579 14.6762 79.4906 15.607C78.5508 16.5379 78.081 18.1533 78.081 20.4532V32.3632H73.3546V9.7342H78.081V13.0197Z" fill="#231B32"/>
<path d="M109.83 9.7342L95.8166 43H90.9245L95.5678 31.9935L86.5713 9.7342H91.8365L98.2627 26.9831L104.938 9.7342H109.83Z" fill="#231B32"/>
<path d="M111.821 21.0281C111.821 18.7009 112.291 16.6611 113.231 14.9089C114.198 13.1292 115.525 11.7603 117.211 10.802C118.897 9.84371 120.831 9.36458 123.015 9.36458C125.779 9.36458 128.059 10.0217 129.856 11.3359C131.68 12.6227 132.91 14.4708 133.545 16.8802H128.446C128.031 15.7576 127.368 14.8815 126.456 14.2518C125.544 13.6221 124.397 13.3072 123.015 13.3072C121.08 13.3072 119.532 13.9917 118.372 15.3606C117.238 16.7022 116.672 18.5914 116.672 21.0281C116.672 23.4649 117.238 25.3678 118.372 26.7367C119.532 28.1057 121.08 28.7902 123.015 28.7902C125.751 28.7902 127.562 27.5992 128.446 25.2172H133.545C132.882 27.517 131.638 29.3514 129.814 30.7204C127.99 32.062 125.724 32.7328 123.015 32.7328C120.831 32.7328 118.897 32.2536 117.211 31.2954C115.525 30.3097 114.198 28.9407 113.231 27.1885C112.291 25.4088 111.821 23.3554 111.821 21.0281Z" fill="#231B32"/>
<path d="M136.68 20.946C136.68 18.6735 137.15 16.6611 138.09 14.9089C139.057 13.1566 140.356 11.8013 141.987 10.8431C143.645 9.8574 145.469 9.36458 147.459 9.36458C149.256 9.36458 150.818 9.72051 152.144 10.4324C153.499 11.1168 154.577 11.9793 155.378 13.0197V9.7342H160.146V32.3632H155.378V28.9955C154.577 30.0633 153.485 30.9531 152.103 31.665C150.721 32.3768 149.145 32.7328 147.377 32.7328C145.414 32.7328 143.618 32.2399 141.987 31.2543C140.356 30.2413 139.057 28.8449 138.09 27.0653C137.15 25.2582 136.68 23.2185 136.68 20.946ZM155.378 21.0281C155.378 19.4675 155.046 18.1122 154.383 16.9623C153.747 15.8124 152.904 14.9363 151.854 14.3339C150.804 13.7316 149.671 13.4304 148.454 13.4304C147.238 13.4304 146.105 13.7316 145.055 14.3339C144.005 14.9089 143.148 15.7713 142.484 16.9213C141.849 18.0438 141.531 19.3854 141.531 20.946C141.531 22.5066 141.849 23.8756 142.484 25.0529C143.148 26.2302 144.005 27.1337 145.055 27.7634C146.133 28.3658 147.266 28.667 148.454 28.667C149.671 28.667 150.804 28.3658 151.854 27.7634C152.904 27.1611 153.747 26.285 154.383 25.135C155.046 23.9577 155.378 22.5888 155.378 21.0281Z" fill="#231B32"/>
<path d="M0 1H166.645M0 34.3685H166.645M21.5333 26.5314H9.46881L7.39587 32.3632H2.46227L12.7855 3.77921H18.2581L28.5813 32.3632H23.6063L21.5333 26.5314ZM20.2067 22.712L15.5218 9.44671L10.7955 22.712H20.2067ZM31.4945 21.0281C31.4945 18.7009 31.9643 16.6611 32.9041 14.9089C33.8715 13.1292 35.1981 11.7603 36.8841 10.802C38.5701 9.84371 40.5049 9.36458 42.6884 9.36458C45.4523 9.36458 47.7325 10.0217 49.5291 11.3359C51.3533 12.6227 52.5832 14.4708 53.2189 16.8802H48.1195C47.7049 15.7576 47.0415 14.8815 46.1295 14.2518C45.2174 13.6221 44.0703 13.3072 42.6884 13.3072C40.7536 13.3072 39.2058 13.9917 38.045 15.3606C36.9118 16.7022 36.3452 18.5914 36.3452 21.0281C36.3452 23.4649 36.9118 25.3678 38.045 26.7367C39.2058 28.1057 40.7536 28.7902 42.6884 28.7902C45.4247 28.7902 47.235 27.5992 48.1195 25.2172H53.2189C52.5556 27.517 51.3118 29.3514 49.4876 30.7204C47.6634 32.062 45.397 32.7328 42.6884 32.7328C40.5049 32.7328 38.5701 32.2536 36.8841 31.2954C35.1981 30.3097 33.8715 28.9407 32.9041 27.1885C31.9643 25.4088 31.4945 23.3554 31.4945 21.0281ZM63.4431 13.5536V26.0796C63.4431 26.9284 63.6365 27.5444 64.0235 27.9277C64.4381 28.2836 65.1291 28.4616 66.0964 28.4616H68.9985V32.3632H65.2672C63.139 32.3632 61.5083 31.8703 60.3751 30.8847C59.2419 29.899 58.6753 28.2973 58.6753 26.0796V13.5536H55.9805V9.7342H58.6753V4.10776H63.4431V9.7342H68.9985V13.5536H63.4431ZM78.081 13.0197C78.7719 11.8698 79.684 10.98 80.8172 10.3502C81.9781 9.69313 83.3462 9.36458 84.9217 9.36458V14.2107H83.7194C81.8675 14.2107 80.4579 14.6762 79.4906 15.607C78.5508 16.5379 78.081 18.1533 78.081 20.4532V32.3632H73.3546V9.7342H78.081V13.0197ZM109.83 9.7342L95.8166 43H90.9245L95.5678 31.9935L86.5713 9.7342H91.8365L98.2627 26.9831L104.938 9.7342H109.83ZM111.821 21.0281C111.821 18.7009 112.291 16.6611 113.231 14.9089C114.198 13.1292 115.525 11.7603 117.211 10.802C118.897 9.84371 120.831 9.36458 123.015 9.36458C125.779 9.36458 128.059 10.0217 129.856 11.3359C131.68 12.6227 132.91 14.4708 133.545 16.8802H128.446C128.031 15.7576 127.368 14.8815 126.456 14.2518C125.544 13.6221 124.397 13.3072 123.015 13.3072C121.08 13.3072 119.532 13.9917 118.372 15.3606C117.238 16.7022 116.672 18.5914 116.672 21.0281C116.672 23.4649 117.238 25.3678 118.372 26.7367C119.532 28.1057 121.08 28.7902 123.015 28.7902C125.751 28.7902 127.562 27.5992 128.446 25.2172H133.545C132.882 27.517 131.638 29.3514 129.814 30.7204C127.99 32.062 125.724 32.7328 123.015 32.7328C120.831 32.7328 118.897 32.2536 117.211 31.2954C115.525 30.3097 114.198 28.9407 113.231 27.1885C112.291 25.4088 111.821 23.3554 111.821 21.0281ZM136.68 20.946C136.68 18.6735 137.15 16.6611 138.09 14.9089C139.057 13.1566 140.356 11.8013 141.987 10.8431C143.645 9.8574 145.469 9.36458 147.459 9.36458C149.256 9.36458 150.818 9.72051 152.144 10.4324C153.499 11.1168 154.577 11.9793 155.378 13.0197V9.7342H160.146V32.3632H155.378V28.9955C154.577 30.0633 153.485 30.9531 152.103 31.665C150.721 32.3768 149.145 32.7328 147.377 32.7328C145.414 32.7328 143.618 32.2399 141.987 31.2543C140.356 30.2413 139.057 28.8449 138.09 27.0653C137.15 25.2582 136.68 23.2185 136.68 20.946ZM155.378 21.0281C155.378 19.4675 155.046 18.1123 154.383 16.9623C153.747 15.8124 152.904 14.9363 151.854 14.3339C150.804 13.7316 149.671 13.4304 148.454 13.4304C147.238 13.4304 146.105 13.7316 145.055 14.3339C144.005 14.9089 143.148 15.7713 142.484 16.9213C141.849 18.0438 141.531 19.3854 141.531 20.946C141.531 22.5066 141.849 23.8756 142.484 25.0529C143.148 26.2302 144.005 27.1337 145.055 27.7634C146.133 28.3658 147.266 28.667 148.454 28.667C149.671 28.667 150.804 28.3658 151.854 27.7634C152.904 27.1611 153.747 26.285 154.383 25.135C155.046 23.9577 155.378 22.5888 155.378 21.0281Z" stroke="#231B32" stroke-width="0.841311"/>
</svg>
